<svg xmlns="http://www.w3.org/2000/svg" xmlns:xlink="http://www.w3.org/1999/xlink" width="78.825" height="18.82" viewBox="0 0 78.825 18.82">
  <defs>
    <clipPath id="clip-path">
      <rect id="Rectangle_534" data-name="Rectangle 534" width="78.825" height="18.82" fill="#f0dc46"/>
    </clipPath>
  </defs>
  <g id="CC_Logo" transform="translate(0)">
    <g id="Group_82" data-name="Group 82" transform="translate(0)" clip-path="url(#clip-path)">
      <path id="Path_64" data-name="Path 64" d="M101.028,69.328a3.435,3.435,0,0,1-3.009-2.683,5.924,5.924,0,0,1,.119-2.774,3.422,3.422,0,0,1,1.758-1.959,4.23,4.23,0,0,1,3.588.006,3.662,3.662,0,0,1,1.331,1.2l.114.221-.85.442c-.781.406-.854.43-.9.291a1.982,1.982,0,0,0-1.016-.834,1.52,1.52,0,0,0-1.757.866,2.364,2.364,0,0,0-.224,1.1c-.07,1.588.527,2.451,1.7,2.454a1.429,1.429,0,0,0,1.335-.692,1,1,0,0,1,.255-.32,10.358,10.358,0,0,1,1.463.745c0,.3-.948,1.247-1.546,1.549a3.953,3.953,0,0,1-2.36.387" transform="translate(-80.455 -50.55)" fill="#f0dc46"/>
      <path id="Path_65" data-name="Path 65" d="M142.853,61.757a6.589,6.589,0,0,0-2.266,0,3.687,3.687,0,0,0-2.39,1.815,4.81,4.81,0,0,0,.059,4.06,3.542,3.542,0,0,0,2.332,1.7c.236.048.5.1.586.123a7.32,7.32,0,0,0,1.875-.14,3.511,3.511,0,0,0,2.618-3.063,3.745,3.745,0,0,0-2.813-4.494m-.407,5.9a2.139,2.139,0,0,1-1.523-.042,2.3,2.3,0,0,1-.939-2.339,2.132,2.132,0,0,1,.55-1.47,1.51,1.51,0,0,1,1.216-.481,1.574,1.574,0,0,1,1.583,1.054,2.329,2.329,0,0,1,.171,1.132c0,1.171-.335,1.842-1.057,2.144" transform="translate(-113.217 -50.669)" fill="#f0dc46"/>
      <path id="Path_66" data-name="Path 66" d="M319.621,61.63a3.985,3.985,0,0,0-2.851,1.014,4.413,4.413,0,0,0-.706,4.779,3.443,3.443,0,0,0,2.428,1.884c.234.048.5.1.582.122a7.45,7.45,0,0,0,1.887-.144,3.565,3.565,0,0,0,2.627-3.8,3.612,3.612,0,0,0-3.967-3.858m1.762,4.327a1.856,1.856,0,0,1-.972,1.647,1.8,1.8,0,0,1-2.13-.479c-.766-1.157-.462-3.174.553-3.665a1.954,1.954,0,0,1,1.985.255,2.776,2.776,0,0,1,.564,2.242" transform="translate(-259.399 -50.644)" fill="#f0dc46"/>
      <path id="Path_67" data-name="Path 67" d="M405.7,69.428a4.6,4.6,0,0,1-2.287-1.024l-.49-.392.674-.591.674-.591.324.257a3,3,0,0,0,2.029.765c.837,0,1.318-.33,1.194-.823-.072-.285-.368-.41-1.688-.71a13.318,13.318,0,0,1-1.556-.434,1.937,1.937,0,0,1-.943-2.7,2.947,2.947,0,0,1,2.928-1.547,5.755,5.755,0,0,1,2.943.827l.365.222-.677.656-.677.656-.2-.177a2.932,2.932,0,0,0-2.467-.478c-.462.249-.414.736.092.948a10.272,10.272,0,0,0,1.146.3c1.719.374,2.276.647,2.633,1.29a2.61,2.61,0,0,1,.027,1.965,2.761,2.761,0,0,1-1.121,1.162,5.531,5.531,0,0,1-2.927.412" transform="translate(-331.098 -50.654)" fill="#f0dc46"/>
      <path id="Path_68" data-name="Path 68" d="M15.065,16.185a8.207,8.207,0,0,0-6.079-3.628A8.024,8.024,0,0,0,2.33,14.985,8.517,8.517,0,0,0,.2,18.792,5.852,5.852,0,0,0,0,20.756a6.082,6.082,0,0,0,.209,1.992,8.383,8.383,0,0,0,6.106,6.006c.258.064.574.131.7.149a11.882,11.882,0,0,0,2.565-.061,8.352,8.352,0,0,0,5.932-4.308,8.4,8.4,0,0,0-.449-8.349m-.336,6.3A6.762,6.762,0,0,1,1.458,21.068a6.86,6.86,0,0,1,3.888-6.442,5.941,5.941,0,0,1,2.806-.6,6.052,6.052,0,0,1,2.64.488,6.8,6.8,0,0,1,3.947,4.566,8.445,8.445,0,0,1-.008,3.409" transform="translate(0 -10.287)" fill="#f0dc46"/>
      <path id="Path_69" data-name="Path 69" d="M21.236,49.4a2.322,2.322,0,0,1-1.424-1.933,2.53,2.53,0,0,1,1.355-2.8,3.1,3.1,0,0,1,2.132.013c.359.155,1.032.763,1.032.932a2.167,2.167,0,0,1-.517.305l-.517.255-.276-.276a1.266,1.266,0,0,0-.532-.324,1.032,1.032,0,0,0-.972.361,2.434,2.434,0,0,0-.039,2.075.932.932,0,0,0,.666.425.905.905,0,0,0,.96-.329l.311-.326.4.22a4.687,4.687,0,0,1,.471.284c.135.122-.484.753-.982,1a1.837,1.837,0,0,1-1.113.234,3.8,3.8,0,0,1-.954-.12" transform="translate(-16.259 -36.554)" fill="#f0dc46"/>
      <path id="Path_70" data-name="Path 70" d="M47.936,49.376a2.33,2.33,0,0,1-1.424-1.9,2.554,2.554,0,0,1,1.355-2.826,2.943,2.943,0,0,1,2.18.045c.369.18.984.746.984.9a2.347,2.347,0,0,1-.536.309l-.537.26-.278-.3a.665.665,0,0,0-.658-.3.91.91,0,0,0-.937.573,3.069,3.069,0,0,0-.034,1.584,1.031,1.031,0,0,0,1.782.344l.247-.283.476.24a1.919,1.919,0,0,1,.476.29c0,.179-.615.752-1.029.958a1.837,1.837,0,0,1-1.113.234,3.805,3.805,0,0,1-.954-.12" transform="translate(-38.193 -36.533)" fill="#f0dc46"/>
      <path id="Path_71" data-name="Path 71" d="M185.1,65.45V61.739h2.188v.535l.448-.27a2.716,2.716,0,0,1,1.7-.447,2.141,2.141,0,0,1,1.674.635l.329.313.259-.228a3.507,3.507,0,0,1,2.465-.725,2.059,2.059,0,0,1,1.739.991c.172.321.176.386.2,3.472l.023,3.145h-2.187l-.023-2.559c-.021-2.271-.039-2.587-.162-2.811a1.127,1.127,0,0,0-1.908.073c-.125.229-.144.533-.167,2.777l-.027,2.52h-2.175V66.579c0-2.835-.013-2.925-.466-3.159a1.492,1.492,0,0,0-1.229.035c-.483.294-.492.354-.492,3.163v2.543H185.1V65.45Z" transform="translate(-152.106 -50.567)" fill="#f0dc46"/>
      <path id="Path_72" data-name="Path 72" d="M250.846,65.43V61.719h2.187v.639l.254-.213a3.181,3.181,0,0,1,2.356-.59,2.068,2.068,0,0,1,1.274.64l.283.3.283-.224a3.359,3.359,0,0,1,2.6-.719,2.154,2.154,0,0,1,1.314.575c.5.5.5.488.529,3.911l.024,3.106h-2.184l-.026-2.52c-.029-2.809-.057-2.977-.539-3.226a1.293,1.293,0,0,0-1.319.157c-.345.331-.393.729-.393,3.288v2.3h-2.18l-.023-2.637c-.021-2.386-.037-2.656-.164-2.844a1.028,1.028,0,0,0-1.037-.362.984.984,0,0,0-.976.853c-.036.188-.067,1.387-.069,2.665l0,2.324h-2.188V65.43Z" transform="translate(-206.132 -50.546)" fill="#f0dc46"/>
      <path id="Path_73" data-name="Path 73" d="M363.487,65.481V61.77h2.187v.639l.238-.2c1.036-.871,3.1-.84,3.781.056.41.538.434.757.434,3.971v2.956H367.94V66.65c0-2.8-.024-2.971-.459-3.2a1.417,1.417,0,0,0-1.268.056c-.489.329-.5.378-.525,3.161l-.025,2.52h-2.176V65.481Z" transform="translate(-298.694 -50.598)" fill="#f0dc46"/>
      <path id="Path_74" data-name="Path 74" d="M101.18,21.045a3.608,3.608,0,0,1-2.889-1.824,5.541,5.541,0,0,1-.318-3.271,3.566,3.566,0,0,1,2.354-2.55,4.247,4.247,0,0,1,3.757.632c.3.25.861.951.795,1-.109.082-1.568.828-1.62.828-.036,0-.158-.14-.271-.311a1.528,1.528,0,0,0-2.488.007,2.941,2.941,0,0,0-.36,1.807c.065,1.244.6,1.929,1.547,2a2.358,2.358,0,0,0,.73-.058,2.17,2.17,0,0,0,.883-.831c.084-.143.123-.133.84.221a3.4,3.4,0,0,1,.752.437,3.278,3.278,0,0,1-.759.96,3.928,3.928,0,0,1-2.953.955" transform="translate(-80.412 -10.862)" fill="#f0dc46"/>
      <path id="Path_75" data-name="Path 75" d="M172.436,17.606v-.344a6.715,6.715,0,0,0-.386-1.911,3.184,3.184,0,0,0-2.931-2.094,4.641,4.641,0,0,0-2.142.378,3.518,3.518,0,0,0-1.692,2.33c-.61,2.694.569,4.763,2.893,5.077a4.1,4.1,0,0,0,3.841-1.43,1.862,1.862,0,0,0,.321-.539,4.558,4.558,0,0,0-.782-.476l-.758-.4-.486.538c-.542.6-.82.752-1.37.749-.9,0-1.446-.538-1.62-1.58l-.049-.293h5.163Zm-5.176-1.328.05-.253a1.527,1.527,0,0,1,2.3-.942,1.375,1.375,0,0,1,.613.953l.048.241H167.26Z" transform="translate(-135.691 -10.887)" fill="#f0dc46"/>
      <path id="Path_76" data-name="Path 76" d="M215.474,20.717c-.035-.075-.084-1.438-.109-3.027-.045-2.824-.05-2.9-.229-3.264-.376-.769-1.15-1.125-2.619-1.2a3.82,3.82,0,0,0-2.925.718,2.217,2.217,0,0,0-.635,1.37v.231h2.092l.05-.269a1.14,1.14,0,0,1,1.494-.668c.5.139.62.313.621.877v.472l-1.062.179c-2.04.344-2.912.8-3.354,1.734a2.722,2.722,0,0,0-.021,1.9,2.334,2.334,0,0,0,1.742,1.247,3.5,3.5,0,0,0,2.482-.59c.373-.319.408-.327.41-.095a1.676,1.676,0,0,0,.048.352c.046.171.075.176,1.062.176.939,0,1.01-.011.952-.137m-2.306-2.439a1.556,1.556,0,0,1-.828,1.064,2.012,2.012,0,0,1-.634.106c-.969,0-1.37-.957-.63-1.5a11.072,11.072,0,0,1,2.08-.682c.123,0,.129.473.012,1.017" transform="translate(-171.431 -10.854)" fill="#f0dc46"/>
      <path id="Path_77" data-name="Path 77" d="M252.175,12.674a1.7,1.7,0,0,1-1.4-1.05c-.124-.275-.144-.6-.165-2.715l-.025-2.4H249.5l.022-.645.023-.645.527-.023.527-.023v-2.1h2.187v2.11h1.328V6.5l-.645.023-.645.022-.022,1.8c-.013.989,0,1.913.024,2.055.076.423.279.562.819.562h.469v1.719h-.371c-.2,0-.547.016-.761.034a3.765,3.765,0,0,1-.8-.04" transform="translate(-205.023 -2.522)" fill="#f0dc46"/>
      <path id="Path_78" data-name="Path 78" d="M340.153,18.193a1.753,1.753,0,0,0-.44.456,1.727,1.727,0,0,1-1.433.791,1.559,1.559,0,0,1-1.557-1.271c-.028-.181-.068-.39-.09-.466-.036-.128.122-.137,2.556-.137h2.595l-.045-.606c-.2-2.632-1.816-4.057-4.211-3.708a3.294,3.294,0,0,0-2.921,2.727,6.642,6.642,0,0,0-.035,2.368A3.361,3.361,0,0,0,337.5,21a4.543,4.543,0,0,0,2.7-.442,3.306,3.306,0,0,0,1.307-1.2l.236-.351-.755-.409a6.443,6.443,0,0,0-.84-.411m-3.512-2.17a1.558,1.558,0,0,1,2.193-1.068,1.461,1.461,0,0,1,.715,1l.046.284h-3.006Z" transform="translate(-274.86 -10.848)" fill="#f0dc46"/>
      <path id="Path_79" data-name="Path 79" d="M140.407,17.776l.02-3.73,1.07-.022,1.07-.022.024.39.024.39.338-.228a3.845,3.845,0,0,1,1.393-.5c.321-.058.339,0,.339,1.038v.842l-.606.095a4.286,4.286,0,0,0-.93.248c-.557.264-.574.35-.574,2.952v2.274h-2.189Z" transform="translate(-115.363 -11.506)" fill="#f0dc46"/>
      <path id="Path_80" data-name="Path 80" d="M280.211,17.753V14l1.074.022,1.074.022.02,3.731.021,3.731h-2.189Z" transform="translate(-230.263 -11.505)" fill="#f0dc46"/>
      <path id="Path_81" data-name="Path 81" d="M296.271,17.969c-.674-1.987-1.235-3.666-1.248-3.731-.02-.1.152-.12,1.119-.138.872-.017,1.151,0,1.179.078.019.055.312,1.234.65,2.619s.633,2.519.657,2.519.327-1.17.674-2.6l.631-2.6,1.147-.022a4,4,0,0,1,1.147.052c0,.041-.461,1.422-1.025,3.069s-1.129,3.3-1.257,3.678l-.233.684H297.5Z" transform="translate(-242.433 -11.582)" fill="#f0dc46"/>
      <path id="Path_82" data-name="Path 82" d="M280.211.862V0H282.4l-.022.84-.022.84-1.074.022-1.074.022Z" transform="translate(-230.263 0)" fill="#f0dc46"/>
    </g>
  </g>
</svg>
