<svg xmlns="http://www.w3.org/2000/svg" xmlns:xlink="http://www.w3.org/1999/xlink" width="90.515" height="8.222" viewBox="0 0 90.515 8.222">
  <defs>
    <clipPath id="clip-path">
      <rect id="Rectangle_548" data-name="Rectangle 548" width="90.515" height="8.222" fill="#f0dc46"/>
    </clipPath>
  </defs>
  <g id="Group_86" data-name="Group 86" clip-path="url(#clip-path)">
    <path id="Path_139" data-name="Path 139" d="M328.525,31.632a2.03,2.03,0,0,1,2.425.422,2.085,2.085,0,0,1,1.67-.633,1.705,1.705,0,0,1,1.764,1.707c.04,1.19.011,2.382.01,3.573a.424.424,0,0,1-.47.482c-.313-.01-.434-.207-.431-.516q.011-1.633,0-3.266c-.005-.747-.363-1.088-1.091-1.067a.978.978,0,0,0-1,1.068c-.008,1,0,2,0,3,0,.1,0,.205,0,.307-.015.305-.171.487-.481.476s-.418-.2-.417-.489q0-1.537,0-3.074a2.568,2.568,0,0,0-.032-.458.986.986,0,0,0-1.186-.821.929.929,0,0,0-.9.993c-.007,1.076,0,2.152,0,3.228,0,.437-.132.623-.439.629s-.459-.189-.46-.613c0-1.511,0-3.023,0-4.534,0-.258.018-.536.312-.579a2.419,2.419,0,0,1,.744.168" transform="translate(-302.283 -28.983)" fill="#f0dc46"/>
    <path id="Path_140" data-name="Path 140" d="M722.417,31.853a5.556,5.556,0,0,0,4.526-.235,1.639,1.639,0,0,1,1.444,1.681c.028,1.178.006,2.357.009,3.535,0,.309-.142.5-.452.5-.335,0-.454-.212-.451-.536.008-1.089.011-2.178,0-3.266a1,1,0,0,0-1.449-.986.987.987,0,0,0-.646,1.029c-.005,1.05.01,2.1-.013,3.151a.771.771,0,0,1-.243.546c-.3.22-.641-.027-.643-.446-.006-1.025,0-2.049,0-3.074a2.383,2.383,0,0,0-.035-.458.982.982,0,0,0-1.164-.8.927.927,0,0,0-.923.977c-.009,1.089,0,2.178,0,3.266,0,.426-.146.624-.458.6-.368-.024-.445-.273-.444-.592q.007-2.286,0-4.573c0-.245.023-.509.3-.552a1.956,1.956,0,0,1,.643.121l.011.112" transform="translate(-665.979 -29.134)" fill="#f0dc46"/>
    <path id="Path_141" data-name="Path 141" d="M871.061,2.973a1.958,1.958,0,0,1,2.052-.054,1.757,1.757,0,0,1,.947,1.6c.007.653,0,1.305,0,1.958a1.938,1.938,0,0,1-2.877,1.728c-.032-.017-.066-.03-.1-.044l.012.111a2.088,2.088,0,0,1-.681.1c-.305-.058-.265-.359-.265-.6q0-3.417,0-6.834c0-.09,0-.18,0-.269a.417.417,0,0,1,.485-.424.4.4,0,0,1,.422.445c0,.742,0,1.484,0,2.283m0,2.545c0,.358-.008.717,0,1.075a.912.912,0,0,0,.96.93.961.961,0,0,0,1.112-.862c.03-.741.032-1.486,0-2.226a.974.974,0,0,0-1.122-.856.915.915,0,0,0-.949.941c-.006.333,0,.666,0,1" transform="translate(-803.225 -0.226)" fill="#f0dc46"/>
    <path id="Path_142" data-name="Path 142" d="M.912,5.172c.772-.811,1.459-1.551,2.172-2.264a.667.667,0,0,1,.531-.161c.336.079.391.485.126.773-.381.414-.767.826-1.166,1.223A.38.38,0,0,0,2.5,5.3c.47.777.906,1.574,1.365,2.358.163.278.218.528-.09.732-.257.17-.5.067-.705-.288-.455-.784-.907-1.569-1.351-2.337-.246.226-.488.427-.7.657a.577.577,0,0,0-.1.351c-.012.4,0,.794,0,1.191,0,.308-.154.5-.461.493S0,8.269,0,7.956Q0,4.363,0,.769C0,.456.139.279.454.278S.912.462.912.769q0,1.941,0,3.882v.521" transform="translate(0 -0.257)" fill="#f0dc46"/>
    <path id="Path_143" data-name="Path 143" d="M941.218,36.993a2.228,2.228,0,0,1-2.122.221,1.588,1.588,0,0,1-1.078-1.605,1.4,1.4,0,0,1,1.076-1.458c.433-.146.9-.2,1.34-.322.216-.058.516,0,.579-.335a.856.856,0,0,0-.431-.873,1.16,1.16,0,0,0-1.438.348c-.067.092-.127.243-.211.259a.961.961,0,0,1-.568-.018c-.23-.116-.2-.353-.1-.573a1.958,1.958,0,0,1,2.174-1,1.784,1.784,0,0,1,1.494,1.748c.014.858.01,1.717,0,2.576,0,.276.061.468.359.544a.4.4,0,0,1,.3.534.411.411,0,0,1-.568.305,8.136,8.136,0,0,1-.814-.353m-.2-2.416c-.535.121-1.025.212-1.5.348a.683.683,0,0,0-.573.638.81.81,0,0,0,.832.9c.688.052,1.2-.287,1.239-.852.025-.317,0-.638,0-1.03" transform="translate(-865.875 -29.166)" fill="#f0dc46"/>
    <path id="Path_144" data-name="Path 144" d="M579.325,35.06a6.744,6.744,0,0,0,.041.687.955.955,0,0,0,.77.808,1.043,1.043,0,0,0,1.144-.438c.042-.064.07-.138.113-.2.144-.21.37-.3.557-.145a.646.646,0,0,1,.221.528,1.645,1.645,0,0,1-1.44,1.157,1.913,1.913,0,0,1-2.3-1.942c-.007-.615-.009-1.23,0-1.845a1.961,1.961,0,0,1,3.918-.118c.022.293.013.589.006.884-.01.424-.166.578-.585.582-.781.007-1.562.008-2.344.012a.745.745,0,0,0-.1.03m2.076-.907c.061-.538.09-1.049-.434-1.374a1.04,1.04,0,0,0-1.159.005c-.515.323-.5.833-.46,1.369Z" transform="translate(-533.938 -29.271)" fill="#f0dc46"/>
    <path id="Path_145" data-name="Path 145" d="M1080.916,35.03c0,.212,0,.377,0,.541a1,1,0,0,0,.71.982,1.069,1.069,0,0,0,1.24-.455c.076-.116.149-.286.255-.315.15-.04.413-.031.478.062a.729.729,0,0,1,.1.575,1.951,1.951,0,0,1-3.7-.851c0-.653,0-1.305,0-1.958a1.957,1.957,0,0,1,3.907-.1c.015.319.008.64,0,.96-.009.4-.164.552-.566.554-.792.005-1.583,0-2.432,0m.02-.873h2.052c.045-.549.059-1.068-.471-1.38a1.056,1.056,0,0,0-1.162.025c-.5.323-.467.83-.419,1.354" transform="translate(-996.94 -29.282)" fill="#f0dc46"/>
    <path id="Path_146" data-name="Path 146" d="M69.8,37.134A1.925,1.925,0,0,1,66.9,36.056a3.344,3.344,0,0,1-.051-.725c-.005-1.013,0-2.025,0-3.038,0-.451.146-.653.461-.648s.436.187.437.631c0,1.038-.008,2.077,0,3.115a1.049,1.049,0,1,0,2.1.057q.009-1.615,0-3.23c0-.253.052-.463.315-.553.335-.115.607.132.609.568.006,1.064,0,2.128,0,3.192,0,.449,0,.9,0,1.346,0,.253-.011.538-.3.591a1.908,1.908,0,0,1-.648-.112l-.014-.116" transform="translate(-61.703 -29.203)" fill="#f0dc46"/>
    <path id="Path_147" data-name="Path 147" d="M651.813,37.257a2.113,2.113,0,0,1-1.922.1,1.545,1.545,0,0,1-1.022-1.493c-.028-1.191-.014-2.384-.019-3.576,0-.318.13-.532.468-.525s.455.24.456.547q0,1.577,0,3.153c0,.751.356,1.148,1.024,1.151s1.061-.412,1.063-1.169c0-1.038,0-2.077,0-3.115,0-.392.152-.588.454-.57.362.022.459.258.459.583q-.006,2.269,0,4.538c0,.253,0,.538-.294.592a1.971,1.971,0,0,1-.652-.107l-.015-.112" transform="translate(-598.947 -29.319)" fill="#f0dc46"/>
    <path id="Path_148" data-name="Path 148" d="M140.12,31.618a1.88,1.88,0,0,1,2.945,1.695c0,1.076,0,2.153,0,3.229,0,.312-.083.537-.43.558-.3.018-.467-.181-.469-.568-.006-1.051,0-2.1,0-3.152a.993.993,0,0,0-1.056-1.131,1.009,1.009,0,0,0-1.044,1.151c0,1.038-.007,2.076,0,3.114,0,.329-.088.56-.448.587-.294.022-.476-.186-.477-.566-.006-1.538-.013-3.076.012-4.613a.688.688,0,0,1,.317-.531c.169-.067.421.071.636.12l.01.109" transform="translate(-128.438 -28.896)" fill="#f0dc46"/>
    <path id="Path_149" data-name="Path 149" d="M442.065,37.161a2.1,2.1,0,0,1-1.633.2,1.636,1.636,0,0,1-1.33-1.66c-.033-1.178-.011-2.358-.009-3.537a.433.433,0,0,1,.467-.491c.313,0,.446.192.445.5q-.007,1.653,0,3.306a.963.963,0,0,0,.552.939,1.086,1.086,0,0,0,1.1-.058.938.938,0,0,0,.436-.847c-.005-1.076,0-2.153,0-3.23,0-.258.036-.493.317-.594.327-.117.6.111.606.516.007.9,0,1.794,0,2.691,0,.641,0,1.282,0,1.922,0,.241-.006.51-.283.559a2.028,2.028,0,0,1-.647-.1l-.021-.119" transform="translate(-405.314 -29.224)" fill="#f0dc46"/>
    <path id="Path_150" data-name="Path 150" d="M509.3,31.632a2.8,2.8,0,0,1,1.64.452.434.434,0,0,1,.175.626.413.413,0,0,1-.6.143,2.084,2.084,0,0,0-1.284-.3.778.778,0,0,0-.4.1c-.167.151-.383.35-.394.541-.01.166.2.4.371.509a3.2,3.2,0,0,0,.763.241c.307.089.622.156.918.27a1.462,1.462,0,0,1,.977,1.427,1.509,1.509,0,0,1-.854,1.471,2.487,2.487,0,0,1-3.229-.779c-.132-.235-.187-.467.059-.649a.485.485,0,0,1,.715.1,3.543,3.543,0,0,0,.289.307,1.481,1.481,0,0,0,1.2.405.958.958,0,0,0,.9-.706c.056-.39-.191-.725-.694-.882-.414-.13-.845-.207-1.259-.337a1.345,1.345,0,0,1-1.093-1.39,1.385,1.385,0,0,1,1.066-1.38,5.721,5.721,0,0,1,.744-.165" transform="translate(-468.248 -29.199)" fill="#f0dc46"/>
    <path id="Path_151" data-name="Path 151" d="M208.823,30.6c.424.16.9.317,1.36.523a.421.421,0,0,1,.192.646.428.428,0,0,1-.642.11,2.032,2.032,0,0,0-1.326-.272c-.4.044-.709.278-.729.57-.026.4.257.563.577.66.391.118.794.195,1.185.311a1.554,1.554,0,0,1,1.287,1.7,1.652,1.652,0,0,1-1.4,1.52,2.469,2.469,0,0,1-2.605-.871c-.239-.34-.251-.622-.012-.78.305-.2.543-.084.765.174a1.505,1.505,0,0,0,1.735.567.756.756,0,0,0,.59-.719.728.728,0,0,0-.561-.739c-.473-.155-.963-.254-1.438-.4a1.417,1.417,0,0,1-.183-2.67,9.958,9.958,0,0,1,1.2-.331" transform="translate(-190.657 -28.249)" fill="#f0dc46"/>
    <path id="Path_152" data-name="Path 152" d="M1011.788,30.762c.39.15.867.312,1.323.519a.415.415,0,0,1,.192.619.421.421,0,0,1-.634.138,1.989,1.989,0,0,0-1.248-.286.844.844,0,0,0-.437.112.945.945,0,0,0-.366.522.689.689,0,0,0,.333.494,3.526,3.526,0,0,0,.8.261c.306.09.621.154.918.269a1.446,1.446,0,0,1,.977,1.382,1.518,1.518,0,0,1-.839,1.516,2.511,2.511,0,0,1-3.146-.64c-.179-.251-.324-.52-.036-.786.222-.205.507-.132.788.181a1.525,1.525,0,0,0,1.671.569.791.791,0,0,0,.648-.717.761.761,0,0,0-.615-.777c-.449-.146-.916-.235-1.365-.38a1.385,1.385,0,0,1-1.026-1.748,1.358,1.358,0,0,1,.938-.983,10.127,10.127,0,0,1,1.13-.263" transform="translate(-931.819 -28.396)" fill="#f0dc46"/>
    <path id="Path_153" data-name="Path 153" d="M275.134,2.41c.4.186,1.071-.19,1.059.531-.011.695-.649.314-1.033.492-.006.069-.024.178-.024.287q0,1.383,0,2.766c0,.52.147.7.669.812.3.065.461.226.418.535-.046.329-.285.39-.569.368a1.514,1.514,0,0,1-1.416-1.535c-.013-.947,0-1.9,0-2.843,0-.137-.012-.274-.02-.427-.368-.038-.833.054-.834-.467s.47-.428.855-.485c0-.63-.018-1.255.011-1.877a.7.7,0,0,1,.248-.5c.309-.192.632.04.637.431.009.638,0,1.276,0,1.91" transform="translate(-252.354 0)" fill="#f0dc46"/>
    <path id="Path_154" data-name="Path 154" d="M1150.847,3.879c0-1.011,0-2.023,0-3.034,0-.429.144-.608.464-.6s.457.187.458.618q0,2.919,0,5.838c0,.586.1.715.667.828a.436.436,0,0,1,.407.508c-.031.3-.235.4-.516.4a1.509,1.509,0,0,1-1.472-1.479c-.022-1.024-.005-2.048-.005-3.072h-.005" transform="translate(-1062.334 -0.224)" fill="#f0dc46"/>
  </g>
</svg>
