<svg id="Openglam" xmlns="http://www.w3.org/2000/svg" xmlns:xlink="http://www.w3.org/1999/xlink" width="32.501" height="32.486" viewBox="0 0 32.501 32.486">
  <defs>
    <clipPath id="clip-path">
      <rect id="Rectangle_533" data-name="Rectangle 533" width="32.501" height="32.486" fill="#f0dc46"/>
    </clipPath>
  </defs>
  <g id="Group_80" data-name="Group 80" transform="translate(0)" clip-path="url(#clip-path)">
    <path id="Path_59" data-name="Path 59" d="M32.5,16.26A16.275,16.275,0,0,1,18.135,32.393a15.981,15.981,0,0,1-12.4-3.758A15.68,15.68,0,0,1,.107,18.041,15.665,15.665,0,0,1,3.978,5.607,15.777,15.777,0,0,1,16.243,0,16.234,16.234,0,0,1,32.5,16.26m-9.345.28.1.018c.007.118.021.237.022.355,0,.711.005,1.422,0,2.133,0,.226.075.359.316.365a.308.308,0,0,0,.364-.327c0-.05.019-.1.019-.148,0-1.222,0-2.443,0-3.665,0-.248-.047-.466-.383-.483-.511-.026-.628.023-.74.419-.13.461-.255.923-.393,1.425-.156-.548-.3-1.052-.444-1.554-.125-.421-.481-.291-.753-.263a.457.457,0,0,0-.289.336q-.031,1.964,0,3.928c0,.113.182.28.311.32.206.065.359-.062.382-.293.012-.124.014-.249.014-.373q0-1.156,0-2.311a5.812,5.812,0,0,1,.311.914c.066.252.131.485.464.488s.39-.248.461-.49c.078-.265.16-.528.241-.792m-11.5-7.064a3.511,3.511,0,0,0-.012-.82,2.719,2.719,0,0,0-.467-1.261,1.617,1.617,0,0,0-1.749-.316A1.583,1.583,0,0,0,8.4,8.524a11.279,11.279,0,0,0,0,1.906A1.6,1.6,0,0,0,10.062,12a1.64,1.64,0,0,0,1.587-1.665c.018-.286,0-.574,0-.86m-3.333,7.7a10.586,10.586,0,0,0,.206,1.313,1.288,1.288,0,0,0,1.22.938,1.44,1.44,0,0,0,1.681-1.649c0-1.04.178-1.044-1.122-1.018-.251,0-.4.113-.406.38s.126.4.407.416a.407.407,0,0,1,.31.174.694.694,0,0,1-.432.938.72.72,0,0,1-.993-.57,12.611,12.611,0,0,1-.016-1.9.647.647,0,0,1,.66-.674.693.693,0,0,1,.807.6.365.365,0,0,0,.541.275.5.5,0,0,0,.207-.425,1.347,1.347,0,0,0-.251-.646,1.466,1.466,0,0,0-1.494-.546A1.387,1.387,0,0,0,8.469,15.9a10.286,10.286,0,0,0-.148,1.277M13.8,11.945a1.111,1.111,0,0,1,.182,0,1.213,1.213,0,0,0,1.6-.939,3.826,3.826,0,0,0,.059-1.474c-.175-1.035-.843-1.371-1.893-1.061a.681.681,0,0,1-.345-.058c-.316-.1-.51.008-.513.332q-.017,2.094,0,4.188a.377.377,0,0,0,.6.342.994.994,0,0,0,.307-.557,3.786,3.786,0,0,0,.012-.773m4.368,2.776c-.122.139-.307.26-.355.421q-.563,1.9-1.071,3.815c-.034.127.037.381.127.42a.376.376,0,0,0,.557-.2c.03-.082.054-.166.077-.25.18-.659.18-.659.847-.657.062,0,.125.005.187,0a.342.342,0,0,1,.4.306,1.6,1.6,0,0,0,.212.63c.106.125.353.148.543.17a.494.494,0,0,0,.128-.344c-.348-1.3-.716-2.595-1.076-3.891-.071-.254-.221-.383-.573-.421m.585-4.288v0c.237,0,.475,0,.712,0,.255.007.365-.123.364-.365,0-.137.007-.276-.006-.412A1.422,1.422,0,0,0,18.59,8.34a1.351,1.351,0,0,0-1.607,1.066,4.5,4.5,0,0,0,.009,1.554,1.221,1.221,0,0,0,1.057,1.021c.528.1,1.481-.065,1.642-.762a1.518,1.518,0,0,0-.046-.474,4.934,4.934,0,0,0-.586.1c-.067.019-.1.137-.162.2a.715.715,0,0,1-1.105-.117c-.16-.26-.057-.473.246-.489.237-.012.474,0,.712,0M21.18,23.06c0,.686.007,1.372,0,2.058,0,.28.1.426.39.42.267-.005.367-.146.362-.409-.011-.561,0-1.122,0-1.684,0-.5.172-.718.552-.718.583,0,.79.183.8.723s.011,1.1,0,1.646c-.006.268.064.44.363.441s.391-.157.387-.429c-.007-.586.006-1.172,0-1.758a1.345,1.345,0,0,0-1.786-1.362c-.219.055-.307,0-.305-.217,0-.262-.007-.524,0-.786s-.044-.435-.36-.438c-.332,0-.393.179-.39.454.006.686,0,1.372,0,2.058m-.068-12.9c0,.462,0,.923,0,1.385,0,.283.126.394.413.394.32,0,.373-.194.376-.438.007-.6,0-1.2.01-1.8a.6.6,0,0,1,.748-.615.768.768,0,0,1,.614.785c.012.574.01,1.148,0,1.721,0,.235.082.339.326.34s.4-.064.4-.321c0-.7.043-1.4-.023-2.094a1.324,1.324,0,0,0-1.859-1.082.6.6,0,0,1-.376-.011c-.427-.143-.628-.02-.634.422s0,.873,0,1.31m-3.386,13.6h0a4.315,4.315,0,0,1,0-.523c.033-.266.156-.5.454-.507.352-.012.727-.063.874.43.029.1.356.13.547.134.046,0,.149-.239.136-.358a1.021,1.021,0,0,0-.609-.864,1.436,1.436,0,0,0-2.149,1.076A4.941,4.941,0,0,0,17,24.477a1.29,1.29,0,0,0,1.245,1.092c.775.026,1.343-.293,1.47-.873.035-.158-.025-.452-.128-.5-.214-.1-.49-.116-.6.229a.573.573,0,0,1-.715.39.6.6,0,0,1-.551-.61c-.01-.149,0-.3,0-.449m-4.918-6.65c0,.611,0,1.222,0,1.833,0,.223.029.458.313.466.635.017,1.272.013,1.907,0,.239,0,.3-.178.3-.391s-.075-.335-.3-.342c-.274-.008-.547-.033-.821-.036-.605-.006-.605,0-.606-.624q0-1.365,0-2.731c0-.256-.034-.481-.368-.49s-.424.192-.423.48c0,.611,0,1.222,0,1.833M14.717,25c0-.435-.11-.537-.564-.53-.408.006-.516.121-.512.547s.125.535.569.529c.413-.005.509-.108.507-.547" transform="translate(0 0)" fill="#f0dc46"/>
    <path id="Path_60" data-name="Path 60" d="M124.156,105.361c0,.311.017.623,0,.932a.764.764,0,0,1-.8.767.777.777,0,0,1-.844-.762c-.024-.633-.025-1.269,0-1.9a.82.82,0,0,1,1.634,0c.025.321,0,.646,0,.97h0" transform="translate(-113.318 -95.87)" fill="#f0dc46"/>
    <path id="Path_61" data-name="Path 61" d="M181.442,122.333c0-.137-.005-.275,0-.412a.643.643,0,0,1,.631-.689.678.678,0,0,1,.724.655,5.705,5.705,0,0,1,0,.86.682.682,0,0,1-.727.654.648.648,0,0,1-.628-.694c-.006-.125,0-.249,0-.374" transform="translate(-167.847 -112.149)" fill="#f0dc46"/>
    <path id="Path_62" data-name="Path 62" d="M240.34,214.615c-.183.008-.3.015-.425.019-.2.006-.269-.094-.23-.283.025-.121.047-.244.077-.364.068-.269.142-.536.232-.875l.346,1.5" transform="translate(-221.718 -197.146)" fill="#f0dc46"/>
    <path id="Path_63" data-name="Path 63" d="M237.646,121.891a2.371,2.371,0,0,1-.335,0c-.1-.015-.282-.049-.288-.093a.485.485,0,0,1,.092-.333.72.72,0,0,1,1.13.055c.159.241.1.359-.189.373-.136.007-.273,0-.41,0" transform="translate(-219.262 -112.132)" fill="#f0dc46"/>
  </g>
</svg>
