<svg xmlns="http://www.w3.org/2000/svg" xmlns:xlink="http://www.w3.org/1999/xlink" width="37.022" height="45.403" viewBox="0 0 37.022 45.403">
  <defs>
    <clipPath id="clip-path">
      <rect id="Rectangle_16" data-name="Rectangle 16" width="37.022" height="45.403" fill="#181818"/>
    </clipPath>
  </defs>
  <g id="Group_64" data-name="Group 64" transform="translate(-5 0)">
    <g id="Group_64-2" data-name="Group 64" transform="translate(5 0)" clip-path="url(#clip-path)">
      <path id="Path_16" data-name="Path 16" d="M12.46,15.3a4.3,4.3,0,1,0-4.3-4.3,4.3,4.3,0,0,0,4.3,4.3" transform="translate(3.534 2.903)" fill="#181818"/>
      <path id="Path_17" data-name="Path 17" d="M9.018,28.114l9.149,11.321v0a1.425,1.425,0,0,0,1.035.451h.006V38.451H19.2v-7.4a4.3,4.3,0,0,1-4.3-4.3V19.591a1.433,1.433,0,1,1,2.866,0v7.165a1.434,1.434,0,0,0,1.456,1.41l10.008,0a4.3,4.3,0,0,1,4.3,4.3v7.165a1.433,1.433,0,1,1-2.866,0V32.461a1.434,1.434,0,0,0-1.433-1.433l.01,7.423h-.01v1.433h.011a2.872,2.872,0,0,0,3.429,2.552,2.963,2.963,0,0,0,2.291-2.949V32.448c0-3.164-3.249-5.726-6.413-5.719l-.553,0A5.711,5.711,0,0,0,25.786,16.9a5.753,5.753,0,0,0-4.726.774,4.253,4.253,0,0,0-2.657-.946l-1.99.006c-.027,0-.052-.007-.077-.007s-.053.007-.08.007l-7.2.021A1.437,1.437,0,0,1,7.619,15.32V8.155a1.433,1.433,0,0,0-2.866,0V15.32a4.3,4.3,0,0,0,4.3,4.3l.006,7.394m15.194-.285a4.029,4.029,0,0,1-.805-.082,4.284,4.284,0,0,1-.585-8.267c.119-.042.238-.08.361-.112.1-.023.191-.046.289-.063a4.056,4.056,0,0,1,.739-.075,4.3,4.3,0,1,1,0,8.6" transform="translate(2.058 2.911)" fill="#181818"/>
      <path id="Path_18" data-name="Path 18" d="M10.829,30.209H2.685A.685.685,0,0,1,2,29.524V2.685A.685.685,0,0,1,2.685,2H25.444a.685.685,0,0,1,.685.685V18.771h-1.37V3.37H3.37V28.839h7.459Z" transform="translate(0.866 0.866)" fill="#181818"/>
      <path id="Path_19" data-name="Path 19" d="M.685,28.209A.685.685,0,0,1,0,27.524V.685A.685.685,0,0,1,.685,0H23.444a.685.685,0,0,1,0,1.37H1.37V27.524a.685.685,0,0,1-.685.685" transform="translate(0 0)" fill="#181818"/>
    </g>
  </g>
</svg>
