<svg xmlns="http://www.w3.org/2000/svg" xmlns:xlink="http://www.w3.org/1999/xlink" width="130.508" height="26.309" viewBox="0 0 130.508 26.309">
  <defs>
    <clipPath id="clip-path">
      <rect id="Rectangle_552" data-name="Rectangle 552" width="130.508" height="26.309" fill="#f0dc46"/>
    </clipPath>
  </defs>
  <g id="Group_96" data-name="Group 96" transform="translate(0 0)">
    <g id="Group_95" data-name="Group 95" transform="translate(0 0)" clip-path="url(#clip-path)">
      <path id="Path_187" data-name="Path 187" d="M0,0H7.212c3.738,0,6.179,1.9,6.179,6.033,0,4.109-2.413,6.036-6.179,6.036H1.323V20.12H0ZM1.323,10.9H7.157c2.959,0,4.854-1.521,4.854-4.857,0-3.362-1.9-4.883-4.854-4.883H1.323Z" transform="translate(0 0.007)" fill="#dbdbdb"/>
      <path id="Path_188" data-name="Path 188" d="M17.43,12.023c0,3.505-2.3,5.288-5.834,5.288-3.477,0-5.774-1.783-5.774-5.288V7.511c0-3.505,2.3-5.288,5.8-5.288S17.43,4.006,17.43,7.511Zm-1.265-4.6c0-2.729-1.809-4.109-4.541-4.109S7.084,4.7,7.084,7.425v4.684c0,2.729,1.811,4.109,4.512,4.109,2.76,0,4.569-1.38,4.569-4.109Z" transform="translate(8.126 3.103)" fill="#dbdbdb"/>
      <path id="Path_189" data-name="Path 189" d="M18.594,10.528,15.4,9.9c-2.355-.431-3.819-1.61-3.819-3.793,0-2.5,1.78-3.879,5.458-3.879,3.594,0,5.346,1.466,5.346,4.4v.144H21.151V6.649c0-2.243-1.291-3.362-4.109-3.362-2.873,0-4.2,1-4.2,2.787,0,1.581.978,2.413,2.818,2.758l3.247.633c2.384.489,3.85,1.639,3.85,3.764,0,2.7-2.156,4.083-5.748,4.083-3.649,0-5.806-1.466-5.806-4.4V12.77h1.265v.084c0,2.271,1.639,3.393,4.541,3.393,2.847,0,4.483-1.006,4.483-2.962,0-1.579-1.093-2.442-2.9-2.758" transform="translate(15.646 3.103)" fill="#dbdbdb"/>
      <path id="Path_190" data-name="Path 190" d="M28.181,12.653c-.084,2.875-2.212,4.658-5.717,4.658-3.678,0-5.892-1.926-5.892-5.346V7.511c0-3.479,2.3-5.288,5.806-5.288,3.477,0,5.8,1.809,5.8,5.288v2.557H17.837v1.984c0,2.585,1.639,4.164,4.627,4.164,2.787,0,4.4-1.406,4.454-3.563ZM17.837,8.975h9.081V7.425c0-2.7-1.811-4.109-4.541-4.109-2.758,0-4.541,1.406-4.541,4.109Z" transform="translate(23.135 3.103)" fill="#dbdbdb"/>
      <path id="Path_191" data-name="Path 191" d="M22.068,19.7l1.725-.431V.863L22.068.431V0h7.763q4.37,0,6.426,1.395a4.227,4.227,0,0,1,2.056,3.637,3.505,3.505,0,0,1-.891,2.5A5.387,5.387,0,0,1,35.15,8.942a9.95,9.95,0,0,1-3.163.546v.144a12.585,12.585,0,0,1,3.652.633,6.285,6.285,0,0,1,2.631,1.61,3.861,3.861,0,0,1,1.049,2.789,4.615,4.615,0,0,1-2.1,4.011q-2.1,1.452-6.814,1.452H22.068ZM29.831,9.2A3.187,3.187,0,0,0,31.6,8.669a3.874,3.874,0,0,0,1.323-1.5,4.555,4.555,0,0,0,.5-2.142,4.832,4.832,0,0,0-.5-2.243A3.965,3.965,0,0,0,31.6,1.265,3.127,3.127,0,0,0,29.831.719H28.537V9.2Zm.575,10.207a3.7,3.7,0,0,0,2.9-1.265,5.061,5.061,0,0,0,1.121-3.479,5.061,5.061,0,0,0-1.121-3.479,3.7,3.7,0,0,0-2.9-1.265H28.537v9.488Z" transform="translate(30.808 0)" fill="#f0dc46"/>
      <path id="Path_192" data-name="Path 192" d="M33.169,16.532a5.288,5.288,0,0,1-2-1.768,4.119,4.119,0,0,1-.719-2.3v-9.2l-1.725-.431V2.4h3.738a2.287,2.287,0,0,1,2.588,2.588v7.476a4.969,4.969,0,0,0,.647,2.775,1.83,1.83,0,0,0,1.51.963,2.426,2.426,0,0,0,1.926-1.15A7.374,7.374,0,0,0,39.8,13.9V3.263l-1.725-.431V2.4h8.051v.431L44.4,3.263V16.92H44.11a4.2,4.2,0,0,1-3.192-1.15,2.979,2.979,0,0,1-.69-1.15,6.43,6.43,0,0,1-.949,1.294,4.371,4.371,0,0,1-3.22,1.294,6.092,6.092,0,0,1-2.89-.676" transform="translate(40.104 3.351)" fill="#f0dc46"/>
      <path id="Path_193" data-name="Path 193" d="M38.383,19.681a5.953,5.953,0,0,1-2.1-2.588,10.008,10.008,0,0,1-.776-4.155,8.363,8.363,0,0,1,1.711-5.65,5.8,5.8,0,0,1,4.615-1.97,4.893,4.893,0,0,1,2.415.575,4.454,4.454,0,0,1,.891.575V.863L43.415.431V0h3.738a2.287,2.287,0,0,1,2.588,2.588V19.264l1.725.431v.431H48.878A3.4,3.4,0,0,1,46.2,19.063a3.04,3.04,0,0,1-.633-1.093,5.191,5.191,0,0,1-.949,1.294,4.371,4.371,0,0,1-3.22,1.294,5.338,5.338,0,0,1-3.019-.877m6.1-1.279a7.373,7.373,0,0,0,.661-1.15V7.332a6.174,6.174,0,0,0-.661-.575,2.535,2.535,0,0,0-1.5-.575,2.1,2.1,0,0,0-1.912,1.438,14.13,14.13,0,0,0-.676,5.319,14.768,14.768,0,0,0,.618,5.161q.618,1.452,1.538,1.452a2.426,2.426,0,0,0,1.926-1.15" transform="translate(49.571 0)" fill="#f0dc46"/>
      <path id="Path_194" data-name="Path 194" d="M44.623,19.681a5.953,5.953,0,0,1-2.1-2.588,10.008,10.008,0,0,1-.776-4.155,8.363,8.363,0,0,1,1.711-5.65,5.8,5.8,0,0,1,4.615-1.97,4.893,4.893,0,0,1,2.415.575,4.455,4.455,0,0,1,.891.575V.863L49.655.431V0h3.738a2.287,2.287,0,0,1,2.588,2.588V19.264l1.725.431v.431H55.118a3.4,3.4,0,0,1-2.674-1.064,3.04,3.04,0,0,1-.633-1.093,5.191,5.191,0,0,1-.949,1.294,4.371,4.371,0,0,1-3.22,1.294,5.338,5.338,0,0,1-3.019-.877m6.1-1.279a7.375,7.375,0,0,0,.661-1.15V7.332a6.175,6.175,0,0,0-.661-.575,2.535,2.535,0,0,0-1.5-.575,2.1,2.1,0,0,0-1.912,1.438,14.13,14.13,0,0,0-.676,5.319,14.768,14.768,0,0,0,.618,5.161q.618,1.452,1.538,1.452a2.426,2.426,0,0,0,1.926-1.15" transform="translate(58.282 0)" fill="#f0dc46"/>
      <path id="Path_195" data-name="Path 195" d="M50.143,22.268a2.507,2.507,0,0,1-.719-1.9,2.326,2.326,0,0,1,.589-1.7,2.09,2.09,0,0,1,1.567-.6,2.491,2.491,0,0,1,.46.043,2.071,2.071,0,0,0,.316.043l.374.058V22.1a2.407,2.407,0,0,0,1.466-.92A11.247,11.247,0,0,0,55.606,18.5l.575-1.438-7.476-13.8-1.438-.431V2.4h3.594a4.048,4.048,0,0,1,2.372.618,5.027,5.027,0,0,1,1.51,1.826l3.594,6.642,3.019-7.792L59.2,2.831V2.4H64.52v.431l-2.3.863L56.469,18.5a10.18,10.18,0,0,1-1.955,3.407,3.227,3.227,0,0,1-2.358,1.049,2.788,2.788,0,0,1-2.013-.69" transform="translate(65.989 3.351)" fill="#f0dc46"/>
    </g>
  </g>
</svg>
