<svg xmlns="http://www.w3.org/2000/svg" width="57.287" height="15.67" viewBox="0 0 57.287 15.67">
  <g id="Supsi" transform="translate(-189.665 -690.298)">
    <path id="Path_155" data-name="Path 155" d="M71.4,104.331l-.613-.092a7.077,7.077,0,0,1-1.987-.577,4.856,4.856,0,0,1-2.759-3.41,7.552,7.552,0,0,1-.2-1.809q0-4.666,0-9.332v-.244h2.831v.294q0,4.5,0,9.009a5.653,5.653,0,0,0,.181,1.554,2.736,2.736,0,0,0,1.957,2,5.128,5.128,0,0,0,2.782.038,2.885,2.885,0,0,0,2.141-2.228,6.228,6.228,0,0,0,.2-1.623q0-4.378,0-8.755v-.289h2.722c0,.08.012.155.012.229q0,4.412,0,8.824a7.954,7.954,0,0,1-.4,2.636,5.269,5.269,0,0,1-3.765,3.49c-.4.115-.828.163-1.243.244-.051.01-.1.027-.152.041Z" transform="translate(136.494 601.637)" fill="#f0dc46"/>
    <path id="Path_156" data-name="Path 156" d="M218.747,103.467c-.22-.03-.44-.062-.66-.091a7.766,7.766,0,0,1-2.816-.9c-.027-.015-.054-.029-.08-.047a.439.439,0,0,1-.049-.052l.866-2.184c.144.056.272.1.4.154a8.342,8.342,0,0,0,2.219.605,6.632,6.632,0,0,0,2.589-.117,3.075,3.075,0,0,0,.74-.313,1.612,1.612,0,0,0,.5-2.327,2.313,2.313,0,0,0-.56-.574,8.77,8.77,0,0,0-1.128-.67c-.709-.353-1.437-.667-2.15-1.012a7,7,0,0,1-1.6-1.044,3.874,3.874,0,0,1-1.338-2.385,3.742,3.742,0,0,1,.868-3.229,4.389,4.389,0,0,1,2.124-1.241,7.853,7.853,0,0,1,2.633-.219,8.875,8.875,0,0,1,3.247.82l.169.08-.808,2.106c-.108-.034-.2-.061-.294-.092a9.29,9.29,0,0,0-2.081-.5,5.652,5.652,0,0,0-2,.068,2.69,2.69,0,0,0-.474.176,1.352,1.352,0,0,0-.51,2,3.133,3.133,0,0,0,.459.483,5.385,5.385,0,0,0,1.156.713c.663.326,1.332.639,1.994.966a8.88,8.88,0,0,1,1.755,1.1,3.962,3.962,0,0,1,1.445,2.145,4.081,4.081,0,0,1-1.2,4.234,4.909,4.909,0,0,1-1.921,1.022,7.45,7.45,0,0,1-1.423.282,1.484,1.484,0,0,0-.178.04Z" transform="translate(15.938 602.501)" fill="#f0dc46"/>
    <path id="Path_157" data-name="Path 157" d="M3.591,103.476c-.2-.029-.408-.063-.612-.088a7.769,7.769,0,0,1-2.839-.9c-.04-.022-.078-.048-.14-.086l.874-2.2c.112.043.211.079.307.119a8.535,8.535,0,0,0,2.326.643,6.574,6.574,0,0,0,2.565-.119,3.364,3.364,0,0,0,.76-.323,1.631,1.631,0,0,0,.472-2.355A2.806,2.806,0,0,0,6.7,97.57a7.248,7.248,0,0,0-1.242-.7c-.7-.327-1.4-.64-2.088-.979a6.509,6.509,0,0,1-1.6-1.086A3.933,3.933,0,0,1,.486,91.863a3.615,3.615,0,0,1,.881-2.531A4.279,4.279,0,0,1,3.342,88.1a6.235,6.235,0,0,1,1.723-.29,9.307,9.307,0,0,1,3.409.464c.367.13.727.283,1.112.434l-.814,2.124c-.2-.066-.387-.123-.567-.184a8.357,8.357,0,0,0-2.831-.467,3.6,3.6,0,0,0-1.136.169,2.637,2.637,0,0,0-.34.142,1.364,1.364,0,0,0-.5,1.962,2.6,2.6,0,0,0,.6.6,8.5,8.5,0,0,0,1.4.8c.663.324,1.333.634,1.99.972A7.033,7.033,0,0,1,9.2,96.13a4,4,0,0,1,1.157,3.395,3.938,3.938,0,0,1-2.324,3.266,6.846,6.846,0,0,1-2.276.639c-.074.009-.147.03-.221.046Z" transform="translate(189.665 602.492)" fill="#f0dc46"/>
    <path id="Path_158" data-name="Path 158" d="M150.6,104.012h-2.763c-.047-.176-.054-14.981,0-15.232h.22q3.232,0,6.465,0a6.186,6.186,0,0,1,2.432.457,4.28,4.28,0,0,1,2.569,2.873,5.654,5.654,0,0,1,0,3.322,4.716,4.716,0,0,1-2.553,2.891,6.788,6.788,0,0,1-2.388.662c-.55.051-1.106.047-1.659.066a1.5,1.5,0,0,1-.171-.014V96.7l.24-.011c.438-.017.878-.014,1.313-.058a4.284,4.284,0,0,0,.9-.2,2.268,2.268,0,0,0,1.63-1.909,4.182,4.182,0,0,0-.055-1.628,2.052,2.052,0,0,0-1.685-1.661,5.552,5.552,0,0,0-1.075-.117c-1.07-.015-2.139-.005-3.209,0-.053,0-.107.006-.194.012-.013.537,0,1.072-.006,1.606s0,1.078,0,1.617v9.66Z" transform="translate(70.317 601.708)" fill="#f0dc46"/>
    <path id="Path_159" data-name="Path 159" d="M285.9,104.082H283.2c-.047-.172-.06-14.926-.013-15.223h2.709c.046.165.059,14.92.01,15.223" transform="translate(-38.981 601.643)" fill="#f0dc46"/>
  </g>
</svg>
